<svg width="789" height="323" viewBox="0 0 789 323" fill="none" xmlns="http://www.w3.org/2000/svg">
<path d="M433.03 311.577C409.087 325.948 379.917 325.948 355.973 311.577L40.5902 158.918C-30.4703 116.266 -2.2823 -0.000771081 79.119 -0.000763964L709.885 -0.000708821C791.286 -0.000701705 819.474 116.266 748.414 158.918L433.03 311.577Z" fill="#05141F"/>
<path d="M20.002 84.3281C20.002 48.7058 48.8796 19.8281 84.502 19.8281H704.502C740.124 19.8281 769.002 48.7058 769.002 84.3281C769.002 119.95 740.124 148.828 704.502 148.828H84.502C48.8796 148.828 20.002 119.95 20.002 84.3281Z" fill="white"/>
<path d="M30.002 84.3281C30.002 54.2286 54.9024 29.8281 85.002 29.8281C115.101 29.8281 140.002 54.2286 140.002 84.3281C140.002 114.428 115.101 138.828 85.002 138.828C54.9024 138.828 30.002 114.428 30.002 84.3281Z" fill="#05141F"/>
<path d="M596.695 77.3984H590.795V72.4484H596.695V64.1484H603.145V72.4484H609.195V77.3984H603.145V99.7484H596.695V77.3984Z" fill="#05141F"/>
<path d="M578.54 99.7492H572.09V72.4492H578.14L578.44 76.9492C579.59 73.7992 582.74 71.6992 586.64 71.6992C587.29 71.6992 588.29 71.7992 588.79 71.9492V77.6992C588.09 77.4492 587.29 77.2992 586.39 77.2992C582.79 77.2992 579.49 79.5492 578.54 83.2492V99.7492Z" fill="#05141F"/>
<path d="M539.943 86.4992V85.6492C539.943 77.7492 545.693 71.6992 553.643 71.6992C561.593 71.6992 567.343 77.7492 567.343 85.6492V86.4992C567.343 94.5492 561.593 100.499 553.643 100.499C545.693 100.499 539.943 94.4492 539.943 86.4992ZM546.643 85.6492V86.4992C546.643 91.4492 549.093 95.5492 553.643 95.5492C558.243 95.5492 560.643 91.4492 560.643 86.4992V85.6492C560.643 80.7492 558.243 76.6492 553.643 76.6492C549.093 76.6492 546.643 80.7492 546.643 85.6492Z" fill="#05141F"/>
<path d="M516.038 110.749H509.588V72.4492H515.638L516.038 75.7992C517.638 73.4492 520.688 71.6992 524.188 71.6992C530.788 71.6992 536.438 77.1492 536.438 86.0992C536.438 95.0492 530.788 100.499 524.188 100.499C520.938 100.499 517.938 99.0992 516.038 96.8492V110.749ZM516.038 80.9992V91.1992C517.338 93.9492 519.888 95.4992 522.588 95.4992C525.938 95.4992 529.738 92.4992 529.738 86.0992C529.738 79.6492 526.188 76.6492 522.688 76.6492C519.988 76.6492 517.338 78.3492 516.038 80.9992Z" fill="#05141F"/>
<path d="M484.421 110.749H477.971V72.4492H484.021L484.421 75.7992C486.021 73.4492 489.071 71.6992 492.571 71.6992C499.171 71.6992 504.821 77.1492 504.821 86.0992C504.821 95.0492 499.171 100.499 492.571 100.499C489.321 100.499 486.321 99.0992 484.421 96.8492V110.749ZM484.421 80.9992V91.1992C485.721 93.9492 488.271 95.4992 490.971 95.4992C494.321 95.4992 498.121 92.4992 498.121 86.0992C498.121 79.6492 494.571 76.6492 491.071 76.6492C488.371 76.6492 485.721 78.3492 484.421 80.9992Z" fill="#05141F"/>
<path d="M446.732 72.4492H453.182V90.2992C453.182 93.1992 454.182 95.4992 457.382 95.4992C460.682 95.4992 463.932 92.5992 465.032 89.0992V72.4492H471.482V99.7492H465.432L465.032 95.7992C463.332 98.0992 460.282 100.499 456.332 100.499C450.332 100.499 446.732 96.8992 446.732 90.2992V72.4492Z" fill="#05141F"/>
<path d="M417.215 96.3961V88.5461C419.615 92.1961 424.015 94.9961 428.465 94.9961C432.865 94.9961 435.065 92.4961 435.065 89.7461C435.065 87.5961 433.665 86.1461 429.815 84.0961L424.265 81.1461C419.965 78.8461 417.265 76.3461 417.265 71.1461C417.265 66.0961 421.065 60.9961 429.615 60.9961C434.015 60.9961 437.515 62.4961 440.565 64.7961V72.3461C437.365 68.2961 433.565 66.3961 429.615 66.3961C426.265 66.3961 424.415 68.4961 424.415 70.7461C424.415 72.5961 425.315 73.8961 428.665 75.6461L434.565 78.6961C439.565 81.2961 442.215 84.3461 442.215 89.5961C442.215 96.2461 436.765 100.496 428.465 100.496C423.165 100.496 418.915 98.1461 417.215 96.3961Z" fill="#05141F"/>
<path d="M370.197 91.0961C370.197 85.7961 374.297 82.8461 377.647 80.3961C374.897 76.6461 373.547 74.0961 373.547 70.7461C373.547 65.7961 377.297 61.7461 383.397 61.7461C389.447 61.7461 392.247 65.8961 392.247 69.8461C392.247 73.9461 389.847 77.0961 386.447 79.8961L385.047 81.0461L390.797 88.2461C391.847 86.2461 392.597 83.8461 393.047 81.0461H398.947C398.147 85.4961 396.647 89.5961 394.447 92.8461L399.947 99.7461H393.047L390.847 96.9461C388.197 99.1961 384.947 100.496 381.247 100.496C374.847 100.496 370.197 97.0961 370.197 91.0961ZM379.247 70.8461C379.247 72.6961 380.197 74.5461 381.947 77.0461L383.297 75.9461C385.347 74.2961 386.547 72.3461 386.547 70.2961C386.547 68.1461 385.097 66.5961 383.247 66.5961C381.247 66.5961 379.247 68.0961 379.247 70.8461ZM376.847 90.6961C376.847 93.6461 379.097 95.3961 381.797 95.2961C383.747 95.1961 385.697 94.3461 387.497 92.7461L381.997 85.8961L380.847 84.4461C378.847 86.0461 376.847 87.9961 376.847 90.6961Z" fill="#05141F"/>
<path d="M332.315 110.749H325.865V72.4492H331.915L332.315 75.7992C333.915 73.4492 336.965 71.6992 340.465 71.6992C347.065 71.6992 352.715 77.1492 352.715 86.0992C352.715 95.0492 347.065 100.499 340.465 100.499C337.215 100.499 334.215 99.0992 332.315 96.8492V110.749ZM332.315 80.9992V91.1992C333.615 93.9492 336.165 95.4992 338.865 95.4992C342.215 95.4992 346.015 92.4992 346.015 86.0992C346.015 79.6492 342.465 76.6492 338.965 76.6492C336.265 76.6492 333.615 78.3492 332.315 80.9992Z" fill="#05141F"/>
<path d="M319.35 99.7492H312.9V61.4492H319.35V99.7492Z" fill="#05141F"/>
<path d="M282.75 86.5492V85.5492C282.75 77.5492 287.95 71.6992 295.65 71.6992C303.65 71.6992 308.15 77.1492 308.15 85.8492V88.3492H289.1C289.55 92.7992 292.15 95.4992 296.6 95.5492C300.1 95.5992 303.2 94.5492 306.3 91.3992V97.5492C303.9 99.3992 300.4 100.499 296.6 100.499C287.55 100.499 282.75 94.6492 282.75 86.5492ZM289.15 83.4492H301.75C301.75 79.0492 299.25 76.4992 295.5 76.5492C292.2 76.5992 289.4 79.2492 289.15 83.4492Z" fill="#05141F"/>
<path d="M251.883 99.7461H245.133V61.7461H251.883V77.3461H271.133V61.7461H277.883V99.7461H271.133V82.8461H251.883V99.7461Z" fill="#05141F"/>
<path d="M476.003 232.13H466.553V178.93H488.253C497.913 178.93 505.893 184.39 505.893 194.19V195.31C505.893 203.64 499.873 208.96 492.033 210.22L508.973 232.13H496.723L480.693 210.5H476.003V232.13ZM476.003 186.49V203.01H486.993C492.453 203.01 495.883 199.86 495.883 195.24V194.19C495.883 189.57 492.453 186.49 486.993 186.49H476.003Z" fill="white"/>
<path d="M458.495 232.13H424.545V178.93H458.145V186.63H433.995V200.91H454.225V208.61H433.995V224.36H458.495V232.13Z" fill="white"/>
<path d="M392.806 186.63H376.496V178.93H418.426V186.63H402.256V232.13H392.806V186.63Z" fill="white"/>
<path d="M335.485 232.13H326.035V178.93H337.235L361.035 218.69V178.93H370.415V232.13H359.215L335.485 192.58V232.13Z" fill="white"/>
<path d="M317.977 232.13H284.027V178.93H317.627V186.63H293.477V200.91H313.707V208.61H293.477V224.36H317.977V232.13Z" fill="white"/>
<path d="M108.669 79.2758C108.669 78.4149 107.908 77.6875 107.007 77.6875H105.469V80.8671C106.153 80.8653 106.725 80.864 107.007 80.864C107.908 80.864 108.669 80.1367 108.669 79.2758Z" fill="white"/>
<path d="M113.943 56.9688H55.0566C50.6142 56.9688 47 60.583 47 65.0254V99.3703C47 103.813 50.6142 107.427 55.0566 107.427H78.2927L82.7655 113.176C83.1818 113.711 83.8218 114.024 84.4997 114.024C85.1776 114.024 85.8178 113.711 86.2339 113.176L90.7067 107.427H113.943C118.386 107.427 122 103.813 122 99.3703V65.0254C122 60.583 118.386 56.9688 113.943 56.9688ZM101.075 75.4907C101.075 74.2772 102.059 73.2934 103.272 73.2934H107.008C110.347 73.2934 113.065 75.9773 113.065 79.2763C113.065 82.5752 110.347 85.259 107.008 85.259C106.726 85.259 106.154 85.2602 105.47 85.2621V88.905C105.47 90.1185 104.486 91.1022 103.272 91.1022C102.059 91.1022 101.075 90.1185 101.075 88.905V75.4907ZM94.5204 86.5741C95.7376 86.5665 96.7231 87.5458 96.7298 88.7592C96.7366 89.9727 95.7583 90.9619 94.5447 90.9687C93.0087 90.9771 89.6234 90.9643 89.467 90.9376C88.4108 90.758 87.6381 89.8428 87.6381 88.7714V75.4908C87.6381 74.2773 88.6219 73.2936 89.8354 73.2936C91.0489 73.2936 92.0327 74.2773 92.0327 75.4908V86.5841C92.7969 86.5823 93.6797 86.5787 94.5204 86.5741ZM80.5643 79.9394C81.7777 79.9394 82.7615 80.9232 82.7615 82.1367C82.7615 83.3501 81.7777 84.3339 80.5643 84.3339H77.5738V86.5853H80.9771C82.1905 86.5853 83.1743 87.569 83.1743 88.7825C83.1743 89.996 82.1905 90.9798 80.9771 90.9798H75.3765C74.163 90.9798 73.1792 89.996 73.1792 88.7825V75.4907C73.1792 74.2772 74.163 73.2934 75.3765 73.2934H80.9771C82.1905 73.2934 83.1743 74.2772 83.1743 75.4907C83.1743 76.7041 82.1905 77.6879 80.9771 77.6879H77.5738V79.9393H80.5643V79.9394ZM64.3161 79.7115V75.4908C64.3161 74.2773 65.2999 73.2936 66.5133 73.2936C67.7268 73.2936 68.7106 74.2773 68.7106 75.4908V88.7827C68.7106 89.9961 67.7268 90.9799 66.5133 90.9799C65.2999 90.9799 64.3161 89.9961 64.3161 88.7827V84.1062H60.3301V88.7827C60.3301 89.9961 59.3463 90.9799 58.1328 90.9799C56.9193 90.9799 55.9355 89.9961 55.9355 88.7827V75.4908C55.9355 74.2773 56.9193 73.2936 58.1328 73.2936C59.3463 73.2936 60.3301 74.2773 60.3301 75.4908V79.7115H64.3161Z" fill="white"/>
</svg>
