<svg width="146" height="33" viewBox="0 0 146 33" fill="none" xmlns="http://www.w3.org/2000/svg">
<path d="M126.072 2.88281C124.715 3.96445 123.413 5.39639 122.658 6.96319C121.105 10.1834 121.966 13.1432 122.631 15.0642C123.537 17.6798 125.373 19.0006 127.56 19.965C130.679 21.3403 134.599 21.4329 138.158 20.5136C139.413 20.1896 141.361 19.5159 141.786 18.8873C142.247 18.2067 142.319 16.8907 141.33 16.3125C140.366 15.7487 140.272 16.1793 137.399 16.8172C135.4 17.2612 133.216 17.3383 130.594 16.2063C128.94 15.4924 127.821 14.3969 127.439 12.8994C126.342 8.60432 128.711 7.01128 129.174 6.72001L126.072 2.88281Z" fill="url(#paint0_linear_777_3260)"/>
<path d="M129.339 7.93882C128.104 7.77524 124.483 7.39144 120.693 6.71915C114.83 5.67876 107.936 4.23589 105.735 4.08185C101.499 3.7855 100.793 9.28818 104.174 10.2294C106.089 10.7625 111.359 10.2026 112.64 12.7315C113.03 13.5018 114.062 16.4063 115.231 20.003C115.69 21.4132 119.418 21.1914 118.724 18.1872C118.329 16.4715 117.427 11.8376 117.427 11.8376C117.427 11.8376 128.12 12.9715 128.99 13.0468L129.339 7.93882Z" fill="url(#paint1_linear_777_3260)"/>
<path d="M134.973 5.10881C136.331 5.14488 138.694 5.4936 139.758 6.20545L145.691 7.37473C145.748 4.08153 143.941 2.30942 141.918 1.28781C140.381 0.512463 138.226 -0.118987 134.992 0.0190496C131.9 0.151024 128.648 0.828486 126.055 2.89506L129.154 6.73881C130.617 5.81738 132.455 5.04193 134.973 5.10881Z" fill="url(#paint2_linear_777_3260)"/>
<path d="M139.66 6.14453C139.66 6.14453 139.972 6.34468 140.108 6.4687C140.754 7.05901 140.968 7.7644 139.008 8.08877L140.559 12.8838C144.087 11.9384 145.644 9.85651 145.687 7.31471L139.66 6.14453Z" fill="url(#paint3_linear_777_3260)"/>
<path d="M139.067 8.07961C137.329 8.36711 133.96 8.55305 129.314 7.9375L128.965 13.0455C136.509 13.6982 139.162 13.253 140.618 12.863L139.067 8.07961Z" fill="url(#paint4_linear_777_3260)"/>
<path d="M102 26.5321C102 26.6225 102.071 26.6921 102.157 26.6921H103.58V30.4924L104.517 30.4958V26.692H105.941C106.026 26.692 106.097 26.6224 106.097 26.5321V25.9451C106.097 25.8547 106.026 25.7852 105.94 25.7852H102.157C102.071 25.7852 102 25.8547 102 25.9452V26.5321Z" fill="#FC0103"/>
<path d="M105.336 28.7567C105.336 29.7579 106.175 30.5365 107.214 30.5365C108.26 30.5365 109.1 29.7579 109.1 28.7567C109.1 27.7487 108.26 26.9562 107.214 26.9562C106.175 26.9562 105.336 27.7487 105.336 28.7567ZM106.375 28.7498C106.375 28.277 106.738 27.8878 107.214 27.8878C107.698 27.8878 108.061 28.277 108.061 28.7498C108.061 29.2225 107.698 29.6049 107.214 29.6049C106.738 29.6049 106.375 29.2225 106.375 28.7498ZM109.713 29.4837C109.713 30.2554 110.304 30.5682 110.901 30.5682C111.307 30.5682 111.722 30.5121 111.987 30.31C112.419 29.9805 112.057 29.311 111.468 29.6426C111.293 29.741 111.005 29.6909 110.953 29.6694C110.834 29.6213 110.628 29.5808 110.64 29.2473V27.7895H111.509C112.176 27.7895 112.168 26.9484 111.509 26.9484H110.64V25.7969L109.713 25.7936V26.9483H109.258V27.7894H109.713V29.4837ZM112.338 28.7428C112.338 29.8343 113.171 30.5365 114.067 30.5365C114.53 30.5365 115.012 30.3417 115.176 30.0777V30.5411L116.035 30.5378V27.3968C116.035 26.7821 115.193 26.8121 115.193 27.3631C115.03 27.0987 114.537 26.9562 114.074 26.9562C113.178 26.9562 112.338 27.6444 112.338 28.7428ZM113.377 28.7498C113.377 28.277 113.74 27.8878 114.224 27.8878C114.708 27.8878 115.071 28.277 115.071 28.7498C115.071 29.2225 114.708 29.6119 114.224 29.6119C113.74 29.6119 113.377 29.2225 113.377 28.7498ZM117.815 30.4938V26.1989C117.815 25.6543 116.843 25.6719 116.843 26.1989V30.4935L117.815 30.4938ZM118.657 25.7305C118.564 25.7305 118.5 25.8 118.5 25.8835V30.3318C118.5 30.4222 118.564 30.4918 118.657 30.4918H121.803L121.807 29.5324H119.568V28.6226H121.323C121.416 28.6226 121.48 28.5461 121.48 28.4626V27.8509C121.48 27.7605 121.416 27.6909 121.323 27.6909H119.568V26.6899H121.59C121.683 26.6899 121.754 26.6203 121.754 26.53V25.8904C121.754 25.7999 121.683 25.7305 121.59 25.7305H118.657ZM124.976 30.3527C124.976 30.4361 125.054 30.4918 125.132 30.4918H125.746C125.824 30.4918 125.902 30.4361 125.902 30.3527V28.4757C125.902 27.6484 125.425 26.9007 124.507 26.9007C123.966 26.9007 123.445 27.0596 123.238 27.3029C123.238 26.8044 122.424 26.7827 122.424 27.259V30.496L123.343 30.4993V28.589C123.343 27.4107 124.976 27.5987 124.976 28.589V30.3527ZM132.489 26.8714C131.983 26.8714 131.568 27.1717 131.376 27.4707V27.2451C131.376 26.8254 130.605 26.781 130.605 27.26V30.4818L131.511 30.4936V28.851C131.511 28.3565 131.843 27.811 132.2 27.7529L132.568 27.6933C133.153 27.6933 133.059 26.8714 132.489 26.8714ZM134.915 31.1496C134.446 31.1496 133.997 31.1232 133.757 30.9896C133.18 30.6695 132.839 31.3726 133.199 31.5801C133.684 31.8603 133.926 31.9984 134.837 31.9984C136.004 31.9984 136.637 31.3529 136.637 30.4073V27.259C136.637 26.8439 135.83 26.7959 135.83 27.2064V27.422C135.659 27.1578 135.17 27.0088 134.7 27.0088C133.804 27.0088 132.992 27.6901 132.992 28.7677C132.992 29.8452 133.796 30.5126 134.743 30.5126C135.198 30.5126 135.568 30.318 135.725 30.0815V30.3727C135.725 30.8245 135.463 31.1496 134.915 31.1496ZM134.031 28.7677C134.031 28.2949 134.394 27.9264 134.871 27.9264C135.355 27.9264 135.717 28.2949 135.717 28.7677C135.717 29.2473 135.355 29.6088 134.871 29.6088C134.394 29.6088 134.031 29.2473 134.031 28.7677Z" fill="#FC0103"/>
<path d="M137.87 26.5339C138.173 26.5339 138.424 26.2752 138.424 25.9714C138.424 25.661 138.173 25.4023 137.87 25.4023C137.56 25.4023 137.309 25.661 137.309 25.9714C137.309 26.2752 137.56 26.5339 137.87 26.5339ZM138.192 30.4919C138.269 30.4919 138.327 30.4273 138.327 30.3498V27.433C138.327 26.8174 137.399 26.8176 137.399 27.433V30.3498C137.399 30.4273 137.463 30.4919 137.541 30.4919H138.192Z" fill="#FC0103"/>
<path d="M140.743 26.8945C139.655 26.8945 138.871 27.7293 138.871 28.7657C138.871 29.802 139.64 30.6009 140.757 30.6009C141.534 30.6009 141.993 30.3717 142.284 29.9974C142.46 29.6908 142.044 29.3164 141.673 29.5307C141.345 29.7533 141.12 29.7229 140.779 29.7229C140.366 29.7229 140.003 29.4422 139.952 29.0032H142.27C142.415 29.0032 142.452 28.924 142.452 28.8377V28.6434C142.452 27.7437 141.86 26.8945 140.743 26.8945ZM141.526 28.3554H139.974C140.075 27.9668 140.395 27.7293 140.75 27.7293C141.091 27.7293 141.432 27.9308 141.526 28.3554Z" fill="#FC0103"/>
<path d="M144.339 26.8711C143.386 26.8711 142.795 27.3766 142.795 28.0195C142.795 28.5901 143.186 28.944 143.77 29.0596L144.361 29.1823C144.7 29.2473 144.878 29.3196 144.878 29.4929C144.878 29.6446 144.715 29.789 144.383 29.789C144.028 29.789 143.661 29.7232 143.432 29.5282C142.924 29.2646 142.473 29.8211 142.98 30.2008C143.275 30.403 143.74 30.5908 144.346 30.5908C145.328 30.5908 145.971 30.078 145.971 29.3991C145.971 28.7418 145.469 28.4529 144.856 28.3373L144.287 28.229C143.984 28.1712 143.873 28.0772 143.873 27.94C143.873 27.7956 144.058 27.68 144.339 27.68C144.641 27.68 144.897 27.711 145.119 27.8554C145.563 28.1122 146.019 27.5647 145.606 27.2193C145.384 27.0242 145.055 26.8711 144.339 26.8711Z" fill="#FC0103"/>
<path d="M128.329 26.8945C127.241 26.8945 126.457 27.7293 126.457 28.7657C126.457 29.802 127.226 30.6009 128.343 30.6009C129.12 30.6009 129.579 30.3717 129.869 29.9974C130.046 29.6908 129.63 29.3164 129.259 29.5307C128.93 29.7533 128.706 29.7229 128.365 29.7229C127.952 29.7229 127.589 29.4422 127.538 29.0032H129.856C130.001 29.0032 130.038 28.924 130.038 28.8377V28.6434C130.038 27.7437 129.446 26.8945 128.329 26.8945ZM129.112 28.3554H127.56C127.661 27.9668 127.981 27.7293 128.336 27.7293C128.677 27.7293 129.018 27.9308 129.112 28.3554Z" fill="#FC0103"/>
<path d="M85.2847 0H84.7461V32.3808H85.2847V0Z" fill="#05141F"/>
<path d="M68.8471 9.37194C68.8471 8.64825 68.3632 8.16439 67.6353 8.16439H62.9187C62.4054 8.16439 62.0604 8.29483 61.6817 8.53886L40.2236 22.474C40.1604 22.5161 40.1099 22.5372 40.0553 22.5372C39.9795 22.5372 39.9416 22.4656 39.9416 22.3352V9.37194C39.9416 8.64825 39.4578 8.16439 38.7299 8.16439H28.2659C27.7315 8.16439 27.4454 8.24854 26.9826 8.52624L7.5356 20.2146C7.46828 20.2525 7.4178 20.2862 7.3631 20.2862C7.28316 20.2862 7.2495 20.2273 7.2495 20.1052V8.28641C7.2495 8.08866 7.20321 7.99609 7.11486 7.99609C7.06857 7.99609 7.01808 8.00872 6.95918 8.04658L1.21176 11.5009C0.244034 12.0816 0 12.7085 0 13.794V22.6339C0 23.3576 0.483861 23.8415 1.20755 23.8415H8.10782C8.54961 23.8415 8.86517 23.7531 9.31958 23.4796L16.8173 18.9734C16.8636 18.944 16.9183 18.9229 16.9562 18.9271C17.0024 18.9271 17.0403 18.9524 17.0866 18.9987L21.5676 23.4796C21.8495 23.7615 22.2534 23.8415 22.7793 23.8415H29.4692C29.5954 23.8415 29.7048 23.8036 29.7048 23.7153C29.7048 23.6395 29.6375 23.5638 29.5407 23.4628L22.1524 16.0745C22.0809 16.0029 22.0598 15.9609 22.0598 15.9146C22.0598 15.8641 22.0893 15.8136 22.1903 15.7505L32.5365 9.53603C32.6038 9.49817 32.6501 9.47292 32.7048 9.47292C32.7763 9.47292 32.8184 9.56128 32.8184 9.65384V22.6297C32.8184 23.3534 33.3022 23.8373 34.0259 23.8373H44.4268C44.8307 23.8373 45.1926 23.7531 45.6302 23.467L61.3157 13.2765C61.3788 13.2386 61.4293 13.2134 61.4798 13.2134C61.5597 13.2134 61.5976 13.3017 61.5976 13.4153V23.9256C61.5976 24.1192 61.6607 24.1739 61.728 24.1739C61.7827 24.1739 61.8416 24.1486 61.9173 24.1023L67.6395 20.6648C68.6072 20.0842 68.8471 19.4531 68.8471 18.3675V9.36353V9.37194Z" fill="#05141F"/>
<defs>
<linearGradient id="paint0_linear_777_3260" x1="126.653" y1="6.40826" x2="138.002" y2="18.7351" gradientUnits="userSpaceOnUse">
<stop stop-color="#0186F5"/>
<stop offset="0.132" stop-color="#0186F5"/>
<stop offset="0.315" stop-color="#35C2B0"/>
<stop offset="0.667" stop-color="#AAD825"/>
<stop offset="1" stop-color="#FED700"/>
</linearGradient>
<linearGradient id="paint1_linear_777_3260" x1="117.334" y1="19.5737" x2="117.334" y2="8.92881" gradientUnits="userSpaceOnUse">
<stop stop-color="#FF7F00"/>
<stop offset="1" stop-color="#FE0201"/>
</linearGradient>
<linearGradient id="paint2_linear_777_3260" x1="126.958" y1="4.47656" x2="139.488" y2="4.71706" gradientUnits="userSpaceOnUse">
<stop stop-color="#0186F5"/>
<stop offset="0.198" stop-color="#0186F5"/>
<stop offset="1" stop-color="#3156FD"/>
</linearGradient>
<linearGradient id="paint3_linear_777_3260" x1="140.171" y1="9.19197" x2="141.326" y2="6.91312" gradientUnits="userSpaceOnUse">
<stop stop-color="#8434D5"/>
<stop offset="0.854" stop-color="#3156FD"/>
<stop offset="1" stop-color="#3156FD"/>
</linearGradient>
<linearGradient id="paint4_linear_777_3260" x1="138.885" y1="10.4614" x2="129.265" y2="10.9172" gradientUnits="userSpaceOnUse">
<stop stop-color="#8434D5"/>
<stop offset="1" stop-color="#FE0201"/>
</linearGradient>
</defs>
</svg>
